<?xml version="1.0" encoding="UTF-8"?>
<!DOCTYPE svg PUBLIC "-//W3C//DTD SVG 1.1//EN" "http://www.w3.org/Graphics/SVG/1.1/DTD/svg11.dtd">
<!-- Creator: CorelDRAW -->
<svg xmlns="http://www.w3.org/2000/svg" xml:space="preserve" width="198.77mm" height="112.14mm" style="shape-rendering:geometricPrecision; text-rendering:geometricPrecision; image-rendering:optimizeQuality; fill-rule:evenodd; clip-rule:evenodd"
viewBox="0 0 55.994 31.5901"
 xmlns:xlink="http://www.w3.org/1999/xlink">
 <defs>
  <style type="text/css">
   <![CDATA[
    .fil12 {fill:#2B478B}
    .fil4 {fill:#38425D}
    .fil13 {fill:#6A81E2}
    .fil5 {fill:#8B9CF2}
    .fil2 {fill:#9BBDEB}
    .fil8 {fill:#B5463D}
    .fil6 {fill:#BDD1F8}
    .fil10 {fill:#DB6A1D}
    .fil0 {fill:#EFFCFC}
    .fil3 {fill:#F77D49}
    .fil9 {fill:#F99746}
    .fil15 {fill:#F9DDBF}
    .fil11 {fill:#FDFEFE}
    .fil7 {fill:#FEB17B}
    .fil1 {fill:#FFB93D}
    .fil14 {fill:#FFEDDC}
   ]]>
  </style>
 </defs>
 <g id="Layer_x0020_1">
  <metadata id="CorelCorpID_0Corel-Layer"/>
  <g id="_218721344">
   <path id="_52182032" class="fil0" d="M52.982 29.517c0,0.876883 -0.550616,1.36876 -1.13295,1.67717l0.0466781 0.149133 1.87634 0c0.00580307,-0.0217474 0.749272,-1.05568 0.826346,-1.14833 0.182515,-0.219503 0.593603,-1.01241 0.711045,-1.31296 0.417201,-1.06768 0.684593,-1.85202 0.684593,-3.36313l0 -0.444217c0,-1.39082 -0.939421,-3.3964 -1.56632,-4.20931 -0.873982,-1.13326 -1.79816,-2.01775 -3.14104,-2.68451 -1.69478,-0.84153 -2.80032,-0.384242 -2.79801,-3.02743 0.00107047,-1.23586 0.0543686,-4.88176 -0.345649,-5.47892l-0.00898631 -0.243391 -0.534164 -1.43482 -0.148147 0c0,-0.734117 -1.35406,-1.86848 -1.85594,-2.24156 -0.484866,-0.360466 -0.798852,-0.466387 -1.31445,-0.759132 -0.423455,-0.240433 -1.13081,-0.374777 -1.47108,-0.602533 -0.50667,0 -1.05805,-0.333733 -1.52914,-0.347057 -0.604393,-0.0171275 -1.06543,-0.146542 -1.72977,-0.146542l-0.641915 0c-2.53763,0 -4.55411,0.888461 -7.15972,0.888461l-0.148119 0c-1.20526,0 -2.26103,-0.461513 -3.00317,-0.946689 -0.427455,-0.279449 -0.725327,-0.539686 -1.08208,-0.892687 -0.320268,-0.316972 -0.791133,-0.58873 -1.15715,-0.866996 -1.12656,-0.85646 -3.92014,-2.0815 -5.86755,-2.0815l-1.53069 0c-1.77774,0 -3.69884,0.602562 -4.78962,1.33271l-0.246884 0c-0.0345649,0.0515797 -1.23155,0.939675 -1.4031,1.0654 -0.461457,0.338127 -0.852657,0.819106 -1.20473,1.26366 -0.541798,0.684143 -1.39175,2.37174 -1.39175,3.54472l-0.0158035 0.74223 0.114568 1.13343 0 1.67821c0,0.697045 -0.246884,1.14915 -0.246884,1.67824 -0.163106,0.243447 -0.188374,0.631436 -0.404863,0.977339 -0.186318,0.297647 -0.31438,0.579377 -0.523037,0.859221 -0.359565,0.48219 -1.03703,0.908997 -1.56877,1.24529 -0.511459,0.323479 -1.3018,0.607153 -1.88211,0.882715 -0.572138,0.271702 -1.32806,0.656874 -1.77988,1.03424 -1.8414,1.53798 -3.61807,4.1668 -3.61807,7.53847 0,1.30369 0.36072,2.53343 0.683607,3.51221 0.160739,0.487233 0.432779,1.03934 0.649578,1.47308 0.136231,0.272547 0.699016,1.2034 0.74068,1.38209l4.09829 0 0.108399 -4.69837 -0.256518 -0.286914 0 -0.296182 0 -2.56668c-0.191868,-0.0447062 -0.296266,-0.111301 -0.296266,-0.345536l0 -0.296154c0,-0.64631 0.246884,-1.07298 0.246884,-1.48077 0,-0.0294942 -0.0681438,-0.102399 -0.0987367,-0.148091 -0.0463682,-0.19891 -0.148147,-0.246631 -0.148147,-0.444245l0 -0.444217c0,-0.734849 1.20943,-1.29372 1.48274,-1.82487 0.148035,-0.287703 0.199727,-0.791697 0.410102,-1.21893 0.163416,-0.331817 0.506473,-0.707524 0.971057,-0.707524l0.197502 0c1.07396,0 1.48133,1.12194 1.48133,2.17181l0 0.444217c0,0.316634 -0.0889616,0.485993 -0.197502,0.691044 -0.143556,0.299055 0.246884,0.97224 0.246884,1.38209l3.43857 0.0135217 -1.01909 2.40506 1.43195 0 0 -4.34363 3.50582 0 0.0493543 0.0493543 0.0493824 0.0493824 0.0493824 0.0493543 0.0493824 0.0493543 0.0493543 0.0493543 -0.0493543 -0.0493543 -0.0493824 -0.0493543 -0.0493824 -0.0493543 -0.0493824 -0.0493824 -0.0493543 -0.0493543 -0.148147 -0.197417 0 -0.148091c-0.317873,-0.152457 -0.857221,0.0637774 -0.987536,-0.296154l0.296238 0c0.133358,0 0.136147,-0.0235785 0.253138,-0.0618337l-0.203727 -0.135612c0.307422,0 0.516952,0.0602843 0.642535,0.24032l0.246236 0.0558334 0.955197 0.154993 0.476753 -1.2409c-0.142823,-0.0955816 -0.296266,-0.206291 -0.296266,-0.444217l0 -0.0987367c0,-0.525009 0.744342,-0.790992 0.74192,-1.57824 -0.00245081,-0.803077 0.111695,-1.39502 0.553714,-1.76639 0.253701,-0.213164 0.529488,-0.19229 0.888743,-0.249391 0.386777,-0.0614675 0.612252,0.19153 0.791387,0.37258 0.243532,0.246152 0.737779,1.11399 0.826318,1.49387l3.35764 0 0 6.26864 1.92572 -0.345508 0 -10.1187 5.08588 0 0 1.28335c0.602364,0.140288 1.38257,0.842065 1.38257,1.53015l0 0.2468c0,0.898715 -0.609379,1.60838 -1.33319,1.77692l0 1.82631 1.7776 -0.88849 0 -6.12055c-0.784908,-0.376467 -1.04768,-0.364382 -1.61759,-1.04841 -0.405652,-0.486866 -0.653803,-1.18033 -0.653803,-2.06122 0,-1.30149 1.38958,-2.8135 2.6664,-2.8135l0.691298 0c0.738624,0 1.65785,0.653381 1.97513,1.08585 0.575152,0.783922 0.691241,1.02588 0.691241,2.36931l0.938182 0 0 3.06027 0.0987367 0.0493543 0.0987649 0.0493543 0.0493824 0.0493824 0.0987649 0.0493543 0.0493543 0.0493543 0.0493824 0.0493543 0.0493824 0.0493543 0.0493824 0.0493824 0.0493543 0.0493261 0.0494106 0.0493824c0.0300577,0.0449034 0.197502,0.450499 0.197502,0.493599l0 0.592308c0,0.159218 -0.235278,0.407849 -0.333339,0.505881 -0.289252,0.289168 -0.251701,0.156542 -0.506078,0.333226l0.0493543 0.839107 3.23335 -1.519 -3.28271 7.04727 0 11.0565 3.40702 0 1.04117 -0.545573 -0.053608 -0.0961169c0,-3.14464 -0.641915,-5.44365 -0.641915,-8.58854 -0.0681157,-0.101666 -0.148119,-0.128118 -0.148119,-0.2468l-0.0171275 -0.247814 0.115864 -1.52911c-0.13609,-0.203192 -0.987536,-1.01227 -0.987536,-1.234l0 -0.0493543c0,-1.02726 1.22653,-1.9902 1.67883,-2.66541l0.0493824 -0.0493543 0.0493824 -0.592308 -0.148147 0c-0.115583,0 -0.197502,-0.0818909 -0.197502,-0.197445l0 -0.444245c0,-0.310943 0.069496,-0.807894 0.246884,-0.937816 -0.0323676,-0.138907 -0.0987367,-0.2508 -0.0987367,-0.394862 0,-0.201586 0.328268,-0.296154 0.543122,-0.296154 0.494247,0 1.48133,0.332353 1.48133,0.641662 0,0.500726 -0.527629,1.17335 -0.839417,1.38206l0.0493824 0.542953 0.592533 0.64169 0.0987367 0.0987085 0.0494106 0.0493543 0.0493543 0.0493543 0.0493824 0.0493543 0.0493824 0.0493824 0.0493824 0.0493543 0.0493543 0.0493543 0.0493824 0.0493543c0.166824,0.249025 0.691298,0.83629 0.691298,1.18464l0 0.0987085c0,0.207023 -0.253194,0.65169 -0.345649,0.789753l-0.0493824 0.0493543 -0.0493824 0.0493543 0.0987649 1.92501 0 0.789753c0,0.181219 -0.0765104,0.238602 -0.148119,0.345508l-0.0493824 1.53015 0 1.28335c0,0.870714 0.190008,1.47891 0.333339,2.18412 0.13609,0.669804 0.209812,1.52595 0.209812,2.30759 0.221672,0.349227 -0.0271843,1.61785 -0.0987649,1.92501l3.40705 0 0.0987649 -0.197445c-0.258772,-0.136879 -0.555207,-0.364664 -0.721834,-0.611125 -0.301732,-0.446217 -0.206939,-0.689523 -0.364495,-1.01773l2.07387 -0.0493543c-0.0763695,-0.327733 -0.395989,-0.575772 -0.641915,-0.740399 -0.209192,0.395257 -0.63876,0.64169 -1.23442,0.64169 0.0137471,-0.617717 0.649268,-0.497008 0.740652,-0.839107 -0.565405,0.0125639 -0.697946,0.641662 -1.03692,0.641662 -0.347536,0 -0.60166,-0.236743 -0.74068,-0.444245 0.237672,-0.0553545 0.579941,-0.212178 0.641915,-0.444217 -0.288153,0.0239447 -0.638,0.197417 -0.790035,0.197417l-0.0493824 0c-0.221277,0 -0.395003,-0.396919 -0.395003,-0.641662 0,-0.253842 0.392524,-0.472838 0.641887,-0.493599 -0.0576927,-0.159331 -0.698509,-0.530643 -0.839417,-1.13526 0.110737,0.0258039 0.113526,0.0493543 0.246884,0.0493543 0.352945,0 0.863446,-0.0658057 0.938182,-0.345508 -0.622647,-0.0518051 -1.58007,0.0420863 -1.58007,-0.592336l0 -0.394862c0,-0.517234 0.471176,-0.74037 0.987536,-0.74037l0.197502 0c0.430526,0 0.771611,1.14661 1.28383,1.28332l0.0510445 -0.0245081 -0.555123 -1.15518 0.0319169 -0.0649606 1.55846 0.602984c0,0.422356 -0.105216,1.19653 0.148147,1.38206 0.0832149,-0.0578335 0.0987367,-0.00707073 0.0987367,-0.148091l0.019522 -0.447569 -0.118259 -0.687692c0.359678,0.0960042 0.987536,0.593265 0.987536,1.03655l0 0.0493543c0,0.610083 -0.691298,0.894659 -0.691298,1.08591l0 0.148091c0,0.705298 0.543151,0.885391 0.543151,2.22117l0.148147 0 0 -0.148091c0,-0.593491 0.349367,-0.784119 0.395031,-1.33268 -0.141725,-0.211587 -0.493796,-0.299365 -0.493796,-0.691044l0 -0.0987085c0,-0.303196 0.384468,-0.581744 0.641915,-0.64169 -0.0128456,0.154401 -0.0493824,0.175332 -0.0493824,0.345536l0 0.444217c0.242489,-0.0647071 0.148119,-0.562954 0.140541,-0.910434l1.0801 -0.330155 -0.331845 0.796373c0.261758,-0.175247 0.662254,-0.839135 0.839417,-0.839135l0.345649 0c0.341818,0 0.493768,0.295252 0.493768,0.64169 0,0.651296 -0.75347,0.33393 -1.08633,0.493599 0.0803697,0.10961 0.207953,0.197417 0.395031,0.197417l0.395031 0c-0.0435512,0.186881 -0.346015,0.691044 -0.543151,0.691044l-0.246912 0c-0.322972,0 -0.424272,-0.296154 -0.839417,-0.296154l-0.0493543 0c-0.136598,0 -0.118738,0.0380862 -0.148147,0.148063 0.427061,0 0.956436,0.119639 0.987564,0.493599 -0.110737,0.0258039 -0.113526,0.0493543 -0.246884,0.0493543l-0.691298 0c-0.232376,0 -0.353762,-0.153077 -0.507402,-0.254293l-0.329282 0.600111 -0.0520304 0.636028 1.03683 0.0547066zm-12.4431 -19.9906c0,-1.09348 0.658057,-1.82631 1.72819,-1.82631l0.148147 0c0.927252,0 1.67883,0.843896 1.67883,1.77692l0 0.296154c0,0.291252 -0.465936,0.895138 -0.653127,1.07472 -0.314549,0.301788 -0.721525,0.406074 -1.32197,0.406074l-0.148147 0c-0.7002,0 -1.43192,-0.938407 -1.43192,-1.72757zm-26.1207 -1.38206l0.0641436 0.216517 -0.218319 0.127076 0.0554109 -0.19553 -0.0987367 0c0.0475232,-0.177951 0.00447907,-0.132006 0.197502,-0.148063zm6.22157 -1.18464l-0.246884 0c-0.244264,0 -0.397708,-0.197445 -0.839417,-0.197445 0.0672987,-0.288717 0.496191,-0.789725 0.839417,-0.789725l0.148119 0c0.201502,0 0.543151,0.214432 0.543151,0.394862l0 0.2468c0,0.157162 -0.251588,0.345508 -0.444386,0.345508zm1.67881 -2.36926c0.416018,0 0.791443,-0.246771 1.33321,-0.246771l0.395031 0c0.265251,0 0.629774,0.0860883 0.790006,0.197417 0.333564,0.0277477 0.93821,0.393454 0.93821,0.740399l0 0.0493543c0,0.358833 -0.263927,0.813951 -0.543151,0.888461 -0.126907,0.475035 -1.56167,1.08591 -2.22201,1.08591l-0.496867 0.927393 -1.4015 0.39413 0.762709 -1.46959c-0.3521,-0.235672 -0.592533,-0.801753 -0.592533,-1.38206 0,-0.152767 0.0504811,-0.343705 0.118202,-0.471823l-1.30335 -0.959986 1.33333 -0.295844 0.888715 0.54301z"/>
   <path id="_55043424" class="fil1" d="M35.7493 10.7604l-0.0493824 0c-1.37803,0 -2.76513,-1.17847 -2.76513,-2.46797l0 -0.444245c0,-1.31899 1.24248,-2.56668 2.56763,-2.56668l0.444386 0c1.19602,0 2.46887,1.36355 2.46887,2.56668l0 0.197445c0,1.47285 -1.2171,2.71477 -2.66637,2.71477zm-0.839417 0.148091l0.740652 0.0987085c0.598646,0.089018 1.69703,-0.483486 1.98752,-0.77733 0.560757,-0.567264 0.813641,-0.884602 1.0245,-1.78935 0,-1.34344 -0.11609,-1.58539 -0.691241,-2.36931 -0.317281,-0.43247 -1.2365,-1.08585 -1.97513,-1.08585l-0.691298 0c-1.27682,0 -2.6664,1.51201 -2.6664,2.8135 0,0.880884 0.248152,1.57435 0.653803,2.06122 0.569912,0.68403 0.832684,0.671945 1.61759,1.04841z"/>
   <path id="_55043136" class="fil2" d="M23.9481 6.26867c-0.337564,0 -0.69127,-0.217333 -0.69127,-0.542981l0 -0.197417c0,-0.24818 0.245504,-0.493599 0.493768,-0.493599l0.197502 0c0.259561,0 0.543151,0.328155 0.543151,0.542953 0,0.343367 -0.241701,0.691044 -0.543151,0.691044zm-0.790035 -0.740399l0 0.148063c0,0.419652 0.323732,0.691044 0.740652,0.691044 0.308352,0 0.691298,-0.382805 0.691298,-0.691044 0,-0.381538 -0.286463,-0.740399 -0.641915,-0.740399l-0.197502 0c-0.296633,0 -0.592533,0.295816 -0.592533,0.592336z"/>
   <path id="_55042752" class="fil3" d="M25.2319 6.21929c0.279223,-0.0745103 0.543151,-0.529629 0.543151,-0.888461l0 -0.0493543c0,-0.346945 -0.604646,-0.712651 -0.93821,-0.740399l0.39506 1.67821z"/>
   <path id="_55042584" class="fil4" d="M23.9481 6.26867c0.30145,0 0.543151,-0.347677 0.543151,-0.691044 0,-0.214798 -0.28359,-0.542953 -0.543151,-0.542953l-0.197502 0c-0.248264,0 -0.493768,0.245419 -0.493768,0.493599l0 0.197417c0,0.325648 0.353706,0.542981 0.69127,0.542981z"/>
   <path id="_55042992" class="fil3" d="M20.6398 6.95968c0.192797,0 0.444386,-0.188346 0.444386,-0.345508l0 -0.2468c0,-0.18043 -0.341649,-0.394862 -0.543151,-0.394862l-0.148119 0c-0.343226,0 -0.772118,0.501008 -0.839417,0.789725 0.441709,0 0.595153,0.197445 0.839417,0.197445l0.246884 0z"/>
   <path id="_55041792" class="fil5" d="M23.158 5.52827c0,-0.29652 0.2959,-0.592336 0.592533,-0.592336l0.197502 0c0.355452,0 0.641915,0.358861 0.641915,0.740399 0,0.308239 -0.382946,0.691044 -0.691298,0.691044 -0.41692,0 -0.740652,-0.271392 -0.740652,-0.691044l0 -0.148063zm-0.839445 -0.937844l0.691298 2.71477c0.660339,0 2.09511,-0.610872 2.22201,-1.08591l-0.39506 -1.67821c-0.160232,-0.111329 -0.524755,-0.197417 -0.790006,-0.197417l-0.395031 0c-0.54177,0 -0.917195,0.246771 -1.33321,0.246771z"/>
   <path id="_55042080" class="fil2" d="M14.264 8.48792l0.218319 -0.127076 -0.0641436 -0.216517c-0.193023,0.016057 -0.149978,-0.0298886 -0.197502,0.148063l0.0987367 0 -0.0554109 0.19553z"/>
   <path id="_55042032" class="fil4" d="M23.0099 7.30519l-0.691298 -2.71477 -0.888715 -0.54301 -1.33333 0.295844 1.30335 0.959986c-0.0677213,0.128118 -0.118202,0.319056 -0.118202,0.471823 0,0.580307 0.240433,1.14639 0.592533,1.38206l-0.762709 1.46959 1.4015 -0.39413 0.496867 -0.927393z"/>
   <path id="_55042056" class="fil1" d="M33.0829 8.14433c0,-1.52046 1.06748,-2.71479 2.56763,-2.71479 0.770259,0 1.1838,0.256997 1.6203,0.601491 0.62214,0.491064 0.519318,0.758287 0.89018,1.32437l0.0571574 0.640845c0.144034,1.34448 -1.19515,2.56668 -2.46887,2.56668l-0.246884 0c-1.24529,0 -2.41951,-1.21095 -2.41951,-2.41858zm2.6664 2.61603c1.44927,0 2.66637,-1.24191 2.66637,-2.71477l0 -0.197445c0,-1.20312 -1.27284,-2.56668 -2.46887,-2.56668l-0.444386 0c-1.32516,0 -2.56763,1.24769 -2.56763,2.56668l0 0.444245c0,1.28949 1.3871,2.46797 2.76513,2.46797l0.0493824 0z"/>
   <path id="_55041888" class="fil1" d="M35.1406 6.02556c0.379819,-0.00371847 0.447738,-0.181642 0.460499,0.391172l0.246884 0c0.339113,0 1.4897,0.826233 0.148147,0.937844 -0.0182261,-0.219052 -0.176825,-0.444245 -0.395031,-0.444245 -0.18043,0 -0.395003,0.136231 -0.395003,0.296154l0 0.197445c0,0.522474 1.72819,0.122118 1.72819,1.23397l0 0.148091c0,0.547432 -0.740652,0.692847 -0.740652,0.789753 0,0.142457 0.0926801,0.122963 0.0987649,0.394891l-0.197502 0c-0.213333,0 -0.211361,0.0813838 -0.246912,-0.345536l-0.197502 0c-0.489881,0 -0.938182,-0.329986 -0.937872,-0.837248l0.641606 -0.100596c0.0149866,0.179783 0.119216,0.394891 0.296266,0.394891l0.246884 0c0.211305,0 0.395031,-0.152147 0.395031,-0.345508 0,-0.817303 -1.7776,-0.106906 -1.7776,-1.43144 0,-0.376552 0.388975,-0.760484 0.739018,-0.789358l-0.113216 -0.490275zm-2.05775 2.11877c0,1.20763 1.17422,2.41858 2.41951,2.41858l0.246884 0c1.27372,0 2.6129,-1.22219 2.46887,-2.56668l-0.0571574 -0.640845c-0.370861,-0.566081 -0.26804,-0.833304 -0.89018,-1.32437 -0.436498,-0.344494 -0.850037,-0.601491 -1.6203,-0.601491 -1.50015,0 -2.56763,1.19433 -2.56763,2.71479z"/>
   <path id="_55041840" class="fil1" d="M42.1683 9.03279l0 0.0987085c0,0.353001 0.74068,0.250095 0.74068,0.789753 0,0.341226 -0.0955816,0.359283 -0.296266,0.493599 -0.274519,0 -0.290097,-0.0306211 -0.296266,0.2468l-0.148147 0 0 -0.2468c-0.323761,0 -0.543151,-0.132372 -0.543151,-0.444217l0 -0.148091 0.395031 0c0.00518333,0.232038 0.070482,0.296154 0.296266,0.296154l0.0493824 0c0.11378,0 0.148119,-0.0343677 0.148119,-0.148063l0 -0.0493824c0,-0.274688 -0.790035,-0.260518 -0.790035,-0.789753l0 -0.0493543c0,-0.325225 0.294633,-0.518164 0.592533,-0.542953l0 -0.2468 0.246884 0 0 0.296154c0.205643,0.0170993 0.444386,0.292604 0.444386,0.444245l0 0.197445 -0.296238 0c-0.296069,0 -0.000225362,-0.345508 -0.296266,-0.345508l-0.0987649 0c-0.11378,0 -0.148147,0.0343395 -0.148147,0.148063zm1.49015 -0.459879l0.0899476 0.0156345c0.00695805,0.00698622 -0.0147049,0.0124794 -0.0146485,0.0256913 5.63405e-005,0.023832 -0.0109019,0.0418328 -0.00822571,0.0527347 0,5.63405e-005 0.0426779,0.0842572 0.0454386,0.0902856 0.0518614,0.113611 0.0566504,0.136879 0.0871306,0.264603 0.0423962,0.177726 0.0878067,0.358945 0.0878067,0.603238l0 0.0987085c0,0.221334 -0.141077,0.275449 -0.148119,0.592336 -0.250208,0.0667635 -0.10485,0.128541 -0.249532,0.293506 -0.0915251,0.104399 -0.217559,0.173444 -0.337508,0.254969 -0.203079,0.137978 -0.558644,0.290632 -0.894293,0.290632l-0.0493824 0c-0.776175,0 -1.00714,-0.519938 -1.28383,-0.542953 -0.0308746,-0.371087 -0.296238,-0.483852 -0.296238,-0.88849l0 -0.345508c0,-0.688255 0.691664,-1.48077 1.38257,-1.48077l0.345649 0c0.539009,0 0.737244,0.275336 0.952211,0.325507l0.291027 0.349874zm-1.342 2.43425l0.0987649 0c0.707383,0 1.38257,-0.671945 1.38257,-1.38206l0 -0.2468c0,-0.671748 -0.667438,-1.38206 -1.33321,-1.38206l-0.493768 0c-0.205615,0 -0.712989,0.439343 -0.852882,0.578842 -0.237588,0.236799 -0.332184,0.686678 -0.332184,1.14873 0,0.230264 0.0987649,0.154824 0.0987649,0.493599 0.446301,0.298745 0.432301,0.789753 1.43195,0.789753zm-1.77757 -1.48077c0,0.789161 0.731722,1.72757 1.43192,1.72757l0.148147 0c0.600449,0 1.00742,-0.104286 1.32197,-0.406074 0.187191,-0.179585 0.653127,-0.783471 0.653127,-1.07472l0 -0.296154c0,-0.933027 -0.751582,-1.77692 -1.67883,-1.77692l-0.148147 0c-1.07013,0 -1.72819,0.732821 -1.72819,1.82631z"/>
   <path id="_55040592" class="fil1" d="M35.6011 6.91033c0.218207,0 0.376805,0.225193 0.395031,0.444245 1.34155,-0.111611 0.190966,-0.937844 -0.148147,-0.937844l-0.246884 0c-0.0127611,-0.572814 -0.0806796,-0.394891 -0.460499,-0.391172l0.113216 0.490275c-0.350043,0.0288745 -0.739018,0.412807 -0.739018,0.789358 0,1.32454 1.7776,0.61414 1.7776,1.43144 0,0.193361 -0.183726,0.345508 -0.395031,0.345508l-0.246884 0c-0.17705,0 -0.28128,-0.215108 -0.296266,-0.394891l-0.641606 0.100596c-0.000309873,0.507262 0.447991,0.837248 0.937872,0.837248l0.197502 0c0.0355509,0.42692 0.0335789,0.345536 0.246912,0.345536l0.197502 0c-0.00608477,-0.271927 -0.0987649,-0.252434 -0.0987649,-0.394891 0,-0.0969056 0.740652,-0.24232 0.740652,-0.789753l0 -0.148091c0,-1.11185 -1.72819,-0.711496 -1.72819,-1.23397l0 -0.197445c0,-0.159922 0.214573,-0.296154 0.395003,-0.296154z"/>
   <path id="_55040304" class="fil6" d="M34.9099 10.9084l0 6.12055 4.74021 -2.27052 -0.0493543 -0.839107c-0.570729,0 -0.871503,0.0478331 -1.17318,-0.258659 -0.272378,-0.276744 -0.456273,-0.429455 -0.456273,-0.975338l0 -0.0987085c0,-0.529432 0.646113,-1.23462 1.23586,-1.14368l0.393595 0.0577772 0.0987367 0.0493543 0.0987649 0.0493543 0.0493824 0.0493824 0.0987649 0.0493543 0.0493543 0.0493543 0.0493824 0.0493543 0.0493824 0.0493543 0.0493824 0.0493824 0.0493543 0.0493261 0.0494106 0.0493824 -0.0494106 -0.0493824 -0.0493543 -0.0493261 -0.0493824 -0.0493824 -0.0493824 -0.0493543 -0.0493824 -0.0493543 -0.0493543 -0.0493543 -0.0987649 -0.0493543 -0.0493824 -0.0493824 -0.0987649 -0.0493543 -0.0987367 -0.0493543 0 -3.06027 -0.938182 0c-0.210854,0.904744 -0.463739,1.22208 -1.0245,1.78935 -0.290492,0.293844 -1.38888,0.866348 -1.98752,0.77733l-0.740652 -0.0987085z"/>
   <path id="_55070784" class="fil1" d="M42.1683 9.03279c0,-0.113723 0.0343677,-0.148063 0.148147,-0.148063l0.0987649 0c0.296041,0 0.000197192,0.345508 0.296266,0.345508l0.296238 0 0 -0.197445c0,-0.15164 -0.238743,-0.427145 -0.444386,-0.444245l0 -0.296154 -0.246884 0 0 0.2468c-0.2979,0.0247898 -0.592533,0.217728 -0.592533,0.542953l0 0.0493543c0,0.529234 0.790035,0.515065 0.790035,0.789753l0 0.0493824c0,0.113695 -0.0343395,0.148063 -0.148119,0.148063l-0.0493824 0c-0.225785,0 -0.291083,-0.0641155 -0.296266,-0.296154l-0.395031 0 0 0.148091c0,0.311845 0.21939,0.444217 0.543151,0.444217l0 0.2468 0.148147 0c0.00616928,-0.277421 0.0217474,-0.2468 0.296266,-0.2468 0.200685,-0.134316 0.296266,-0.152373 0.296266,-0.493599 0,-0.539657 -0.74068,-0.436751 -0.74068,-0.789753l0 -0.0987085z"/>
   <path id="_55070808" class="fil1" d="M42.3165 11.0072c-0.999649,0 -0.985649,-0.491007 -1.43195,-0.789753 0,-0.338775 -0.0987649,-0.263335 -0.0987649,-0.493599 0,-0.462048 0.0945957,-0.911927 0.332184,-1.14873 0.139893,-0.139499 0.647268,-0.578842 0.852882,-0.578842l0.493768 0c0.665776,0 1.33321,0.710313 1.33321,1.38206l0 0.2468c0,0.710116 -0.675184,1.38206 -1.38257,1.38206l-0.0987649 0zm1.05098 -2.78412c-0.214967,-0.0501712 -0.413201,-0.325507 -0.952211,-0.325507l-0.345649 0c-0.690903,0 -1.38257,0.792514 -1.38257,1.48077l0 0.345508c0,0.404637 0.265364,0.517403 0.296238,0.88849 0.276688,0.0230151 0.507656,0.542953 1.28383,0.542953l0.0493824 0c0.335648,0 0.691213,-0.152655 0.894293,-0.290632 0.119949,-0.0815247 0.245983,-0.15057 0.337508,-0.254969 0.144682,-0.164965 -0.000676086,-0.226742 0.249532,-0.293506 0.00704256,-0.316887 0.148119,-0.371002 0.148119,-0.592336l0 -0.0987085c0,-0.244292 -0.0454104,-0.425512 -0.0878067,-0.603238 -0.0304802,-0.127724 -0.0352691,-0.150993 -0.0871306,-0.264603 -0.00276068,-0.00602843 -0.0454386,-0.0902293 -0.0454386,-0.0902856 -0.00267617,-0.0109019 0.00828205,-0.0289027 0.00822571,-0.0527347 -5.63405e-005,-0.0132118 0.0216066,-0.018705 0.0146485,-0.0256913l-0.0899476 -0.0156345 -0.291027 -0.349874z"/>
   <path id="_146200104" class="fil1" d="M39.2304 12.0684c-0.154824,0.0286773 -0.370354,0.110202 -0.370354,0.271477l0 0.148091c0,0.310802 0.543179,0.223052 0.543179,0.542925 0,0.113751 -0.0343677,0.148091 -0.148147,0.148091l-0.0987649 0c-0.164204,0 -0.144598,-0.0886236 -0.148119,-0.2468l-0.296266 0c0.00560588,0.251476 0.382298,0.598759 0.543151,0.64169 0.018198,-0.21877 0.224573,-0.250659 0.395003,-0.296154l0 -0.345536c0,-0.320803 -0.484641,-0.183501 -0.493768,-0.592308 0.436498,0.00971873 0.114456,0.197445 0.395031,0.197445l0.148119 0 0 -0.148091c0,-0.228545 -0.266716,-0.174402 -0.320944,-0.468922l-0.148119 0.148091z"/>
   <path id="_146200392" class="fil1" d="M30.9597 14.3143c0,-0.797218 0.724454,-1.62889 1.4813,-1.62889l0.395031 0c0.778682,0 1.48133,0.837501 1.48133,1.67824l0 0.148063c0,0.668593 -0.772597,1.4808 -1.43195,1.4808l-0.493768 0c-0.75978,0 -1.43195,-0.865897 -1.43195,-1.67821zm2.1726 1.77692c0.723806,-0.168543 1.33319,-0.878207 1.33319,-1.77692l0 -0.2468c0,-0.688086 -0.780203,-1.38986 -1.38257,-1.53015 -1.01111,-0.484979 -2.27137,0.72344 -2.27137,1.7276l0 0.345508c0,0.726651 0.919843,1.53012 1.7776,1.53012l0.296266 0c0.133358,0 0.136147,-0.0235503 0.246884,-0.0493543z"/>
   <path id="_146201280" class="fil1" d="M39.3785 11.9203c0.0542277,0.29452 0.320944,0.240377 0.320944,0.468922l0 0.148091 -0.148119 0c-0.280576,0 0.0414666,-0.187727 -0.395031,-0.197445 0.00912716,0.408807 0.493768,0.271505 0.493768,0.592308l0 0.345536c-0.17043,0.0454949 -0.376805,0.0773837 -0.395003,0.296154 -0.160852,-0.0429315 -0.537545,-0.390214 -0.543151,-0.64169l0.296266 0c0.00352128,0.158176 -0.0160852,0.2468 0.148119,0.2468l0.0987649 0c0.11378,0 0.148147,-0.0343395 0.148147,-0.148091 0,-0.319873 -0.543179,-0.232123 -0.543179,-0.542925l0 -0.148091c0,-0.161275 0.215531,-0.242799 0.370354,-0.271477l0.148119 -0.148091zm-0.0740596 -0.320831l0.0493824 0c0.439484,0 0.987536,0.502529 0.987536,0.88849l0 0.444217c0,0.520107 -0.512755,0.937844 -1.0863,0.937844l-0.148147 0c-0.558531,0 -1.03692,-0.508501 -1.03692,-1.08591l0 -0.0493543c0,-0.204939 0.0305365,-0.308746 0.159106,-0.393257l-0.0603407 0.442611c-0.0545376,0.363453 0.563968,0.98717 0.938154,0.98717l0.148147 0c0.499599,0 0.987564,-0.441005 0.987564,-0.937816l0 -0.197445c0,-0.445597 -0.528643,-0.98717 -0.938182,-0.98717l-0.148147 0c-0.51698,0 -0.719806,0.37689 -0.938154,0.691016 0.0407623,-0.48974 0.517572,-0.740399 1.0863,-0.740399zm0.296266 2.3199c0.254377,-0.176684 0.216826,-0.0440583 0.506078,-0.333226 0.0980606,-0.0980325 0.333339,-0.346663 0.333339,-0.505881l0 -0.592308c0,-0.0431005 -0.167444,-0.448696 -0.197502,-0.493599l-0.0494106 -0.0493824 -0.0493543 -0.0493261 -0.0493824 -0.0493824 -0.0493824 -0.0493543 -0.0493824 -0.0493543 -0.0493543 -0.0493543 -0.0987649 -0.0493543 -0.0493824 -0.0493824 -0.0987649 -0.0493543 -0.0987367 -0.0493543 -0.393595 -0.0577772c-0.589744,-0.0909336 -1.23586,0.614252 -1.23586,1.14368l0 0.0987085c0,0.545883 0.183895,0.698594 0.456273,0.975338 0.301675,0.306492 0.602449,0.258659 1.17318,0.258659z"/>
   <path id="_146201112" class="fil1" d="M39.3045 11.5995c-0.568729,0 -1.04554,0.250659 -1.0863,0.740399 0.218348,-0.314126 0.421173,-0.691016 0.938154,-0.691016l0.148147 0c0.409539,0 0.938182,0.541573 0.938182,0.98717l0 0.197445c0,0.49681 -0.487965,0.937816 -0.987564,0.937816l-0.148147 0c-0.374185,0 -0.992691,-0.623717 -0.938154,-0.98717l0.0603407 -0.442611c-0.128569,0.0845107 -0.159106,0.188318 -0.159106,0.393257l0 0.0493543c0,0.577406 0.478387,1.08591 1.03692,1.08591l0.148147 0c0.573546,0 1.0863,-0.417737 1.0863,-0.937844l0 -0.444217c0,-0.385961 -0.548052,-0.88849 -0.987536,-0.88849l-0.0493824 0z"/>
   <path id="_146202216" class="fil4" d="M43.9953 13.9194l0.055439 0.391848 0.142063 0.299196c0.554588,0 0.296266,0.110005 0.296266,0.542953 0,0.115526 0.0819472,0.197445 0.197502,0.197445l0.19753 0c0.110709,0 0.108399,-0.0390721 0.197502,-0.0987367 0.311788,-0.208713 0.839417,-0.881334 0.839417,-1.38206 0,-0.309309 -0.987085,-0.641662 -1.48133,-0.641662 -0.214854,0 -0.543122,0.0945675 -0.543122,0.296154 0,0.144063 0.0663691,0.255955 0.0987367,0.394862z"/>
   <path id="_146202576" class="fil1" d="M32.441 13.1296l0 0.296154c-0.251645,0.0209305 -0.444386,0.177811 -0.444386,0.444245l0 0.0987085c0,0.661156 0.987536,0.397764 0.987536,0.789753l0 0.0493543c0,0.115554 -0.0819191,0.197445 -0.197502,0.197445l-0.148147 0c-0.151471,0 -0.213474,-0.121752 -0.246856,-0.2468l-0.395031 0c0.032424,0.389313 0.304605,0.560137 0.691298,0.592336l0.00250715 0.256856 0.244377 -0.0594392 0 -0.2468c0.203784,-0.0543967 0.444386,-0.232095 0.444386,-0.493599 0,-0.798345 -0.987536,-0.467485 -0.987536,-0.888461l0 -0.0493543c0,-0.133245 0.131442,-0.197445 0.246856,-0.197445 0.170571,0 0.214122,0.155472 0.248321,0.304605l0.393595 -0.0578053c-0.0292971,-0.352015 -0.240292,-0.513656 -0.592505,-0.542953l0 -0.148063c0,-0.188121 -0.0785668,-0.116343 -0.246912,-0.0987367z"/>
   <path id="_146203272" class="fil6" d="M27.997 21.3727c0.385538,-0.00859192 2.25782,-0.561912 2.6509,-0.70651 0.431202,-0.158627 0.827529,-0.289759 1.24307,-0.435625 0.342156,-0.120118 0.93852,-0.416215 1.24129,-0.486726l0 -1.77695 0 -0.0493543 0 -1.82631c-0.110737,0.0258039 -0.113526,0.0493543 -0.246884,0.0493543l-0.296266 0c-0.857756,0 -1.7776,-0.803472 -1.7776,-1.53012l0 -0.345508c0,-1.00416 1.26025,-2.21258 2.27137,-1.7276l0 -1.28335 -5.08588 0 0 10.1187z"/>
   <path id="_146203464" class="fil3" d="M39.6501 14.7585l-4.74021 2.27052 -1.7776 0.88849 0 0.0493543 1.7776 0.0987367 1.15532 0.1324 -1.15532 0.657325 -1.7776 0.88849c-0.302774,0.0705101 -0.899138,0.366608 -1.24129,0.486726 -0.415539,0.145866 -0.811866,0.276998 -1.24307,0.435625 -0.393088,0.144598 -2.26537,0.697918 -2.6509,0.70651l-1.92572 0.345508 -3.0614 0.394862 0.0987649 2.5667 2.96264 -0.345508 1.92572 -0.296182c0.110709,-0.0768766 2.26534,-0.577237 2.65124,-0.706144 0.814205,-0.272012 1.8487,-0.511177 2.53341,-0.873334l1.72822 -0.740399 3.17374 -1.77935 0.469823 2.53797 1.04729 -2.19004 3.28271 -7.04727 -3.23335 1.519z"/>
   <path id="_146204688" class="fil1" d="M32.441 13.1296c0.168345,-0.0176064 0.246912,-0.0893842 0.246912,0.0987367l0 0.148063c0.352213,0.0292971 0.563208,0.190938 0.592505,0.542953l-0.393595 0.0578053c-0.0341987,-0.149133 -0.0777499,-0.304605 -0.248321,-0.304605 -0.115413,0 -0.246856,0.0642 -0.246856,0.197445l0 0.0493543c0,0.420976 0.987536,0.0901166 0.987536,0.888461 0,0.261504 -0.240602,0.439202 -0.444386,0.493599l0 0.2468 -0.244377 0.0594392 -0.00250715 -0.256856c-0.386693,-0.0321986 -0.658874,-0.203023 -0.691298,-0.592336l0.395031 0c0.0333817,0.125048 0.0953845,0.2468 0.246856,0.2468l0.148147 0c0.115583,0 0.197502,-0.0818909 0.197502,-0.197445l0 -0.0493543c0,-0.391989 -0.987536,-0.128597 -0.987536,-0.789753l0 -0.0987085c0,-0.266434 0.192741,-0.423314 0.444386,-0.444245l0 -0.296154zm-1.38254 1.03655c0,0.937111 0.576335,1.72757 1.4813,1.72757l0.197502 0c0.761245,0 1.48133,-0.713355 1.48133,-1.43141l0 -0.0493543c0,-0.847727 -0.649803,-1.62886 -1.43195,-1.62886l-0.296266 0c-0.636225,0 -1.43192,0.81381 -1.43192,1.38206z"/>
   <path id="_146204928" class="fil1" d="M31.0584 14.1662c0,-0.56825 0.795697,-1.38206 1.43192,-1.38206l0.296266 0c0.782147,0 1.43195,0.781133 1.43195,1.62886l0 0.0493543c0,0.71806 -0.720088,1.43141 -1.48133,1.43141l-0.197502 0c-0.904969,0 -1.4813,-0.790457 -1.4813,-1.72757zm-0.0987649 0.148091c0,0.812317 0.67217,1.67821 1.43195,1.67821l0.493768 0c0.659353,0 1.43195,-0.812205 1.43195,-1.4808l0 -0.148063c0,-0.840741 -0.70265,-1.67824 -1.48133,-1.67824l-0.395031 0c-0.75685,0 -1.4813,0.83167 -1.4813,1.62889z"/>
   <path id="_146205624" class="fil7" d="M44.0447 16.0912l-0.0493824 0.0493543 0.0493824 -0.0493543 1.0863 -0.296154 -0.0493824 -0.542953c-0.0891025,0.0596646 -0.0867925,0.0987367 -0.197502,0.0987367l-0.19753 0c-0.115554,0 -0.197502,-0.0819191 -0.197502,-0.197445 0,-0.432949 0.258321,-0.542953 -0.296266,-0.542953l-0.142063 -0.299196 -0.055439 -0.391848c-0.177388,0.129921 -0.246884,0.626872 -0.246884,0.937816l0 0.444245c0,0.115554 0.0819191,0.197445 0.197502,0.197445l0.148147 0 -0.0493824 0.592308z"/>
   <path id="_146205720" class="fil7" d="M20.146 16.7329c0.138316,0.206488 0.489852,0.345508 0.839389,0.345508l0.19753 0c0.220601,0 0.690143,-0.258631 0.787556,-0.387482l-0.0962577 -0.056763c-0.302239,-0.0703693 -0.478753,-0.441287 -0.45033,-0.790316l0.0552982 -0.690453c-0.712172,-0.0158598 -0.853136,-0.789753 -0.987564,-0.789753 -0.189867,0 -0.345621,0.36134 -0.345621,0.542953l0 0.345508c0,0.317225 0.101159,0.732764 0.444386,0.740399l0 0.394862c0,0.203924 -0.265392,0.303844 -0.444386,0.345536z"/>
   <path id="_146207112" class="fil6" d="M22.9605 17.1771c0.118456,0.508163 0.888799,1.86236 0.888799,2.27055 0,0.188656 -0.247335,0.346888 -0.345649,0.493571l0.220348 0.321958 -1.01035 0.91204 0.296238 0.937816 3.0614 -0.394862 0 -6.26864 -3.35764 0c0.1906,0.3601 0.467035,1.26887 0.246856,1.72757z"/>
   <path id="_146207424" class="fil4" d="M19.2078 17.72c0.370833,-0.533488 0.100878,-0.792175 0.938182,-0.98717 0.178994,-0.041692 0.444386,-0.141612 0.444386,-0.345536l0 -0.394862c-0.343226,-0.00763414 -0.444386,-0.423173 -0.444386,-0.740399l0 -0.345508c0,-0.181614 0.155753,-0.542953 0.345621,-0.542953 0.134428,0 0.275392,0.773893 0.987564,0.789753l-0.0552982 0.690453c-0.0284238,0.349029 0.148091,0.719947 0.45033,0.790316 0.589406,0.0490444 0.734201,0.307281 1.08627,0.542953 0.220179,-0.458696 -0.056256,-1.36747 -0.246856,-1.72757 -0.0885391,-0.379876 -0.582786,-1.24772 -0.826318,-1.49387 -0.179135,-0.18105 -0.404609,-0.434047 -0.791387,-0.37258 -0.359255,0.0571011 -0.635042,0.0362269 -0.888743,0.249391 -0.442019,0.371368 -0.556165,0.96331 -0.553714,1.76639 0.00242264,0.787246 -0.74192,1.05323 -0.74192,1.57824l0 0.0987367c0,0.237926 0.153443,0.348635 0.296266,0.444217z"/>
   <polygon id="_218715272" class="fil0" points="33.1323,19.7438 34.9099,18.8553 34.9099,18.0656 33.1323,17.9668 "/>
   <polygon id="_218715176" class="fil6" points="34.9099,18.8553 36.0652,18.198 34.9099,18.0656 "/>
   <path id="_218714984" class="fil3" d="M45.8223 16.5354l-0.0987367 -0.0987085 0.0987367 0.0987085zm0.592533 2.51732l0.0493824 -0.0493543 0.0493824 -0.0493543c0.0924547,-0.138062 0.345649,-0.58273 0.345649,-0.789753l0 -0.0987085c0,-0.348353 -0.524474,-0.935618 -0.691298,-1.18464l-0.0493824 -0.0493543 -0.0493543 -0.0493543 -0.0493824 -0.0493543 -0.0493824 -0.0493824 -0.0493824 -0.0493543 -0.0493543 -0.0493543c-0.0447062,0.0767639 0.225897,0.93359 0.290379,1.14112 0.0987085,0.31762 0.116907,1.11281 0.252743,1.32685z"/>
   <path id="_218715512" class="fil7" d="M17.529 19.0034c0.0177473,-0.213164 0.0278885,-0.192572 0.246884,-0.197445l-0.246236 -0.0558334c-0.125583,-0.180036 -0.335113,-0.24032 -0.642535,-0.24032l0.203727 0.135612c-0.116991,0.0382552 -0.11978,0.0618337 -0.253138,0.0618337l-0.296238 0c0.130316,0.359931 0.669663,0.143696 0.987536,0.296154z"/>
   <path id="_218715824" class="fil7" d="M7.94976 19.2995c0.139189,0.120935 0.443343,0.296154 0.691298,0.296154 0.162063,0 0.220798,-0.110625 0.296266,-0.197445 0,-0.360466 -0.0294661,-0.269786 0.246884,-0.246771 0.191783,-0.128372 0.395031,-0.524614 0.395031,-0.839135l0 -0.444217c0,-0.160458 -0.0427906,-0.0372692 -0.0987649,-0.2468 -0.278547,0.0231559 -0.558053,0.444245 -1.0863,0.444245l-0.246912 0 0 0.542925c0,0.198488 -0.127414,0.558672 -0.197502,0.691044z"/>
   <path id="_218716208" class="fil8" d="M5.87592 21.2246l0.148119 0.0987367c0.453231,-0.944238 0.40906,-2.02375 1.92572,-2.02375 0.0700876,-0.132372 0.197502,-0.492557 0.197502,-0.691044l0 -0.542925 0.246912 0c0.528248,0 0.807754,-0.421089 1.0863,-0.444245 0.0559743,0.20953 0.0987649,0.0863418 0.0987649,0.2468l0 0.444217c0,0.314521 -0.203248,0.710763 -0.395031,0.839135 -0.27635,-0.0230151 -0.246884,-0.113695 -0.246884,0.246771 0.296689,0.142316 0.932351,0.151471 1.03954,0.547179l0.096145 -0.0535798c0.10854,-0.205051 0.197502,-0.374411 0.197502,-0.691044l0 -0.444217c0,-1.04988 -0.40737,-2.17181 -1.48133,-2.17181l-0.197502 0c-0.464584,0 -0.807641,0.375707 -0.971057,0.707524 -0.210375,0.42723 -0.262068,0.931224 -0.410102,1.21893 -0.273308,0.53115 -1.48274,1.09002 -1.48274,1.82487l0 0.444217c0,0.197614 0.101779,0.245335 0.148147,0.444245z"/>
   <path id="_218716304" class="fil3" d="M18.5165 19.9412l0.0987649 0.0493824 0.444414 0 0.543151 -0.2468 0.0493543 -0.0493824 0.0493824 -0.0493543 0.0493824 -0.0493543 -0.0987649 -0.740399c-0.212854,0.142513 -0.326183,0.409483 -0.444217,0.641831 -0.270322,0.531995 -0.377678,0.245081 -0.691467,0.444076z"/>
   <path id="_218715992" class="fil9" d="M20.146 16.7329c-0.837304,0.194994 -0.567349,0.453682 -0.938182,0.98717l-0.476753 1.2409 -0.955197 -0.154993c-0.218995,0.00487345 -0.229137,-0.015719 -0.246884,0.197445l0 0.148091 0.148147 0.197417 0.0493543 0.0493543 0.0493824 0.0493824 0.0493824 0.0493543 0.0493824 0.0493543 0.0493543 0.0493543 0.592533 0.345508 0.0987649 0.0493824 -0.0987649 -0.0493824c0.313788,-0.198995 0.421145,0.0879193 0.691467,-0.444076 0.118033,-0.232348 0.231362,-0.499318 0.444217,-0.641831l0.0987649 0.740399 -0.0493824 0.0493543 -0.0493824 0.0493543 -0.0493543 0.0493824 0.0493543 -0.0493824 0.0493824 -0.0493543 0.0493824 -0.0493543 0.148119 0.394891 0.345649 0.0987085 0.151669 -0.0585659 0.144598 0.0585659 0.448245 -0.00343677 -0.511008 -0.604533 1.49471 -1.26769c0.160035,0.238884 0.790035,0.73668 0.790035,1.03655 0,0.252772 -0.876376,0.890743 -1.0863,1.03655l0.135161 0.00692988 0.111723 0.23987c0.444048,0 1.29961,-0.404581 1.58007,-0.592336 0.0983142,-0.146682 0.345649,-0.304915 0.345649,-0.493571 0,-0.408187 -0.770344,-1.76239 -0.888799,-2.27055 -0.352072,-0.235672 -0.496867,-0.493909 -1.08627,-0.542953l0.0962577 0.056763c-0.0974127,0.128851 -0.566954,0.387482 -0.787556,0.387482l-0.19753 0c-0.349536,0 -0.701073,-0.13902 -0.839389,-0.345508z"/>
   <path id="_218716400" class="fil8" d="M20.541 20.0893l0.0493824 0.0493543 0.411314 -0.0149584 0.279984 0.360466 0.0493543 0.0987367 -0.00419737 -0.210854 0.349846 -0.0852995c0.209925,-0.145809 1.0863,-0.783781 1.0863,-1.03655 0,-0.299872 -0.629999,-0.797669 -0.790035,-1.03655l-1.49471 1.26769 0.511008 0.604533 -0.448245 0.00343677z"/>
   <path id="_218715704" class="fil10" d="M43.9459 20.0399l0 0.0493543 0.0493824 0.296154c0.216488,-0.248969 0.395031,-0.950013 0.395031,-1.43141l0 -0.64169c0,-0.395961 -0.938182,0.217136 -0.938182,0.394891l0 0.0987085c0,0.436357 0.493768,0.656339 0.493768,1.234z"/>
   <path id="_218716328" class="fil11" d="M20.2447 20.2867c0,-0.113751 0.0343677,-0.148091 0.148147,-0.148091 0.113751,0 0.148119,0.0343395 0.148119,0.148091 0,0.0953281 -0.088032,0.197417 -0.148119,0.197417 -0.0601153,0 -0.148147,-0.102089 -0.148147,-0.197417zm0 -0.197445c-0.0570166,0.118766 -0.0493543,0.0642 -0.0493543,0.2468l0 0.0987085c0.0891025,0.0596646 0.0867925,0.0987367 0.197502,0.0987367 0.110681,0 0.108371,-0.0390721 0.197502,-0.0987367l0 -0.296154 -0.0493824 -0.0493543 -0.144598 -0.0585659 -0.151669 0.0585659z"/>
   <path id="_218715800" class="fil4" d="M20.541 20.2867c0,-0.113751 -0.0343677,-0.148091 -0.148119,-0.148091 -0.11378,0 -0.148147,0.0343395 -0.148147,0.148091 0,0.0953281 0.088032,0.197417 0.148147,0.197417 0.0600871,0 0.148119,-0.102089 0.148119,-0.197417z"/>
   <polygon id="_218715776" class="fil4" points="20.5904,20.4348 21.2817,20.4842 21.0017,20.1237 20.5904,20.1387 "/>
   <path id="_218716616" class="fil7" d="M43.9459 20.0893l0 -0.0493543c-0.143471,0.0382834 -0.543151,0.214376 -0.543151,0.394862 0,0.115104 0.131752,0.2468 0.246884,0.2468l0.0987649 0c0.110709,0 0.108371,-0.0390721 0.197502,-0.0987085l0 -0.493599z"/>
   <polygon id="_218716808" class="fil7" points="21.331,20.5829 21.578,20.8297 21.9236,20.5335 21.8119,20.2937 21.6767,20.2867 21.3268,20.372 "/>
   <path id="_218716448" class="fil8" d="M21.9236 20.5335l-0.345621 0.296154 0.694509 0.694988 0.441174 -0.34948 1.01035 -0.91204 -0.220348 -0.321958c-0.280463,0.187755 -1.13602,0.592336 -1.58007,0.592336z"/>
   <path id="_218717048" class="fil6" d="M14.1713 23.6925l1.23445 0c0.0216629,-0.260434 0.214742,-1.62886 0.444386,-1.62886l0.0968211 0.0400581 2.86582 0.108033 0.000647916 -2.16531 0.246264 -0.0558616 -0.444414 0 -0.0987649 -0.0493824 -0.592533 -0.345508 -0.0493543 -0.0493543 -0.0493824 -0.0493543 -0.0493824 -0.0493543 -0.0493824 -0.0493824 -0.0493543 -0.0493543 -3.50582 0 0 4.34363z"/>
   <path id="_218716760" class="fil0" d="M19.7016 19.6451l-0.0493824 0.0493543 -0.0493543 0.0493824 -0.543151 0.2468 -0.246264 0.0558616 -0.000647916 2.16531 0.641915 0c0.0169303,-0.759273 0.444386,-1.24138 0.444386,-2.22117l-0.148119 -0.394891 -0.0493824 0.0493543z"/>
   <path id="_218716880" class="fil11" d="M11.5049 22.6066l0.148147 0c0.0953845,0 0.19753,-0.0880038 0.19753,-0.148063 0,-0.113751 -0.0343677,-0.148091 -0.148147,-0.148091 -0.175867,0 -0.19353,0.117047 -0.19753,0.296154z"/>
   <path id="_218716784" class="fil9" d="M43.9459 20.0893l0 0.493599c-0.0891307,0.0596364 -0.0867925,0.0987085 -0.197502,0.0987085l-0.0987649 0c-0.115132,0 -0.246884,-0.131696 -0.246884,-0.2468 0,-0.180487 0.399679,-0.356579 0.543151,-0.394862 0,-0.577659 -0.493768,-0.797641 -0.493768,-1.234l0 -0.0987085c0,-0.177754 0.938182,-0.790851 0.938182,-0.394891l0 0.64169c0,0.481401 -0.178543,1.18245 -0.395031,1.43141l-0.0493824 -0.296154zm0.0987649 -3.99812l-0.0493824 0.0493543c-0.452301,0.675213 -1.67883,1.63816 -1.67883,2.66541l0 0.0493543c0,0.221728 0.851446,1.03081 0.987536,1.234l-0.115864 1.52911 0.0171275 0.247814c0,0.118681 0.0800035,0.145133 0.148119,0.2468 0.287421,0.152035 0.749216,0.296182 1.18507,0.296182l0.744004 0.019522 0.687946 -0.118259 0.0493824 -0.0493543 0.345649 -0.148091c0.0716088,-0.106906 0.148119,-0.164289 0.148119,-0.345508l0 -0.789753 -0.0987649 -1.92501 0.0493824 -0.0493543 0.0493824 -0.0493543 -0.0493824 0.0493543 -0.0493824 0.0493543c-0.135837,-0.214038 -0.154035,-1.00923 -0.252743,-1.32685 -0.0644817,-0.20753 -0.335085,-1.06436 -0.290379,-1.14112l0.0493543 0.0493543 0.0493824 0.0493543 0.0493824 0.0493824 0.0493824 0.0493543 0.0493543 0.0493543 0.0493824 0.0493543 -0.0493824 -0.0493543 -0.0493543 -0.0493543 -0.0493824 -0.0493543 -0.0493824 -0.0493824 -0.0493824 -0.0493543 -0.0493543 -0.0493543 -0.0494106 -0.0493543 -0.0987367 -0.0987085 -0.592533 -0.64169 -1.0863 0.296154z"/>
   <path id="_218716952" class="fil12" d="M43.9953 30.7016l0.938182 0.0493824 0.395003 -2.61606c0,-1.04867 -0.0450442,-2.22469 0.0877503,-3.12064 0.0862573,-0.581913 0.375059,-2.33061 0.554165,-2.70378l0.0493824 -0.0493543 -0.0493824 0.0493543 -0.687946 0.118259 -0.744004 -0.019522c-0.43585,0 -0.897645,-0.144147 -1.18507,-0.296182 0,3.1449 0.641915,5.4439 0.641915,8.58854z"/>
   <path id="_218716928" class="fil6" d="M34.9099 21.7182l0 1.87566 0.592533 -0.2468 0 -0.0987085 0.0493824 -0.0987367 0.0493543 -0.0493543 0.0493824 -0.0987085c-0.0572983,-0.119357 -0.0987367,-0.215953 -0.0987367,-0.394891l0 -0.0987085c0,-0.113723 0.0343395,-0.148063 0.148119,-0.148063l0.0493824 0c0.247898,0 0.286491,0.141105 0.444386,0.246771l0.406412 -0.0113808 0.305056 0.332184 -0.464584 0.320887 0 0.0987085c0.320577,0.368664 0.634197,0.330944 0.939055,0.936971 0.213981,0.425427 0.39413,0.838825 0.394214,1.47764l0.789978 0.0533544c0.0832149,0.0578335 0.0987367,0.00707073 0.0987367,0.148091l0 0.197445c0,0.164148 -0.0886518,0.144542 -0.246884,0.148063 0.058904,0.12271 0.143274,0.542953 -0.0987649,0.542953l-0.246884 0 0 0.345536c0,0.188684 0.0151556,0.0179444 -0.0493543,0.148063l0.740652 0 0 0.345508c0,0.113751 -0.0343677,0.148091 -0.148147,0.148091l-0.291111 0.000169021 -0.0545094 0.49343 -0.192121 0.0495796 -0.054763 0.444019 0 0.0493261 0 0.444245 0 0.0493824c0.219869,0 0.444386,-0.0658339 0.444386,0.148063l-0.00352128 0.336325 -0.144626 0.0585659c0,0.418779 0.106117,0.493571 -0.296238,0.493571 0.0338325,0.060228 0.0493543,0.0528192 0.0493543,0.148091l-0.00704256 0.197445 0.056425 0.148063 0.493768 0 0 0.444245 0.987564 0 0 -11.0565 -1.04729 2.19004 -0.469823 -2.53797 -3.17374 1.77935z"/>
   <path id="_218717000" class="fil6" d="M7.06098 22.4586l0 -0.2468 -0.0493824 -0.0987367c-0.100061,0.073299 -0.440047,0.542981 -0.0987649,0.542981l0.148147 0 0 -0.197445z"/>
   <path id="_218717720" class="fil13" d="M7.06098 22.2118l0 0.2468 0.0571011 0.218094 1.32547 0.423568 0.246884 -0.0493543c-0.56763,-0.493205 -1.33319,-0.102652 -1.34995,-1.49221l-0.279505 0.406299 0 0.2468z"/>
   <path id="_218717672" class="fil5" d="M5.87592 21.2246c0.0305929,0.0456921 0.0987367,0.118597 0.0987367,0.148091 0,0.407792 -0.246884,0.834459 -0.246884,1.48077l0 0.296154c0,0.234236 0.104399,0.30083 0.296266,0.345536 0.128738,0.061721 0.493007,0.148063 0.691298,0.148063l0.395003 0 0 0.0987367 0.0502839 -0.0860883 0.986635 -0.0620027 1.13149 -0.0519741 0.053608 -0.0960887c-0.0825952,-0.309112 -0.406778,0 -0.74068,0l-0.148119 0 0 -0.197445 0 -0.148091 -1.32547 -0.423568 -0.0571011 -0.218094 0 0.197445 -0.148147 0c-0.341283,0 -0.00129583,-0.469683 0.0987649,-0.542981l0.0493824 0.0987367 0 -0.2468 0.279505 -0.406299c0.0167613,1.38955 0.782316,0.999001 1.34995,1.49221 0.154457,-0.0128456 0.175388,-0.0493543 0.345649,-0.0493543l0.0493824 0c0.155274,0 0.106568,0.12409 0.395003,0.148063l0.839417 -1.87563c0,-0.409849 -0.39044,-1.08303 -0.246884,-1.38209l-0.096145 0.0535798c-0.107188,-0.395707 -0.742849,-0.404863 -1.03954,-0.547179 -0.0754681,0.0868207 -0.134203,0.197445 -0.296266,0.197445 -0.247955,0 -0.552109,-0.175219 -0.691298,-0.296154 -1.51666,0 -1.47249,1.07951 -1.92572,2.02375l-0.148119 -0.0987367z"/>
   <path id="_218717576" class="fil14" d="M35.6011 23.1002l-0.0493543 0.0493543 -0.0493824 0.0987367 0.0493824 -0.0987367 0.0493543 -0.0493543 0.142795 -0.0170993 0.554447 0.0593265 0.142175 0.105864 0.464584 -0.320887 -0.305056 -0.332184 -0.406412 0.0113808c-0.157894,-0.105667 -0.196487,-0.246771 -0.444386,-0.246771l-0.0493824 0c-0.11378,0 -0.148119,0.0343395 -0.148119,0.148063l0 0.0987085c0,0.178937 0.0414384,0.275533 0.0987367,0.394891l-0.0493824 0.0987085z"/>
   <path id="_218717696" class="fil7" d="M8.69044 23.0509l-0.246884 0.0493543 0 0.148091 0 0.197445 0.148119 0c0.333902,0 0.658085,-0.309112 0.74068,0l0.148119 -0.296182c-0.288435,-0.0239729 -0.239729,-0.148063 -0.395003,-0.148063l-0.0493824 0c-0.170261,0 -0.191191,0.0365086 -0.345649,0.0493543z"/>
   <polygon id="_218717336" class="fil10" points="35.6011,23.1002 35.5518,23.1496 35.5024,23.2483 35.5024,23.347 36.243,23.4458 36.4406,23.4458 36.4406,23.347 36.4406,23.2483 36.2984,23.1424 35.7439,23.0831 "/>
   <path id="_218717912" class="fil3" d="M11.5049 22.6066c0.00400017,-0.179106 0.0216629,-0.296154 0.19753,-0.296154 0.11378,0 0.148147,0.0343395 0.148147,0.148091 0,0.060059 -0.102145,0.148063 -0.19753,0.148063l-0.148147 0zm-2.02445 0.542953l-0.148119 0.296182 -0.053608 0.0960887 -1.13149 0.0519741 0 0.0987085 4.59212 0 1.01909 -2.40506 -3.43857 -0.0135217 -0.839417 1.87563z"/>
   <path id="_218717792" class="fil0" d="M33.1816 22.4586l-0.0493824 3.30707c0.149556,-0.171979 0.239081,-0.422075 0.352579,-0.634732 0.0776654,-0.145527 0.285083,-0.410497 0.407792,-0.579546 0.386946,-0.533037 0.576194,-0.574335 1.01723,-0.957535l0 -1.87566 -1.72822 0.740399z"/>
   <polygon id="_218717768" class="fil3" points="17.4303,24.7291 17.4303,24.2355 15.307,24.2355 15.2576,24.2355 15.2082,24.6304 15.4064,24.6209 "/>
   <path id="_218717600" class="fil3" d="M15.4058 23.6925l2.71575 0.0493824c0.0832149,0.0578053 0.0987649,0.00707073 0.0987649,0.148063l0 0.148063c0,0.115554 -0.0819472,0.197445 -0.19753,0.197445l-0.148119 0 0 0.542953 1.82695 0 -0.246884 -2.56668 -0.641915 0 -2.86582 -0.108033 -0.0968211 -0.0400581c-0.229644,0 -0.422723,1.36843 -0.444386,1.62886z"/>
   <path id="_218717528" class="fil15" d="M34.1198 25.1239c0.529347,0.28004 1.51071,0.345536 2.32072,0.345536l0.345649 0c0.11378,0 0.148119,-0.0343395 0.148119,-0.148091l0 -0.148063c0,-0.226855 -0.152964,-0.748258 -0.246884,-0.888461 -0.267899,0 -0.62507,0.0457766 -0.85615,-0.0326211 -0.136457,-0.0462837 -0.566842,-0.214207 -0.674565,-0.214207l-0.0987367 0c-0.208432,0 -0.811275,0.896518 -0.938154,1.08591z"/>
   <path id="_218717864" class="fil14" d="M34.1198 25.1239c0.126879,-0.189389 0.729722,-1.08591 0.938154,-1.08591l0.0987367 0c0.107723,0 0.538108,0.167923 0.674565,0.214207 0.231081,0.0783978 0.588251,0.0326211 0.85615,0.0326211 0.0939196,0.140203 0.246884,0.661606 0.246884,0.888461l0 0.148063c0,0.113751 -0.0343395,0.148091 -0.148119,0.148091l-0.345649 0c-0.810007,0 -1.79137,-0.0654958 -2.32072,-0.345536zm0.790035 -1.53012c-0.441033,0.3832 -0.630281,0.424497 -1.01723,0.957535 -0.12271,0.16905 -0.330127,0.434019 -0.407792,0.579546 -0.113498,0.212657 -0.203023,0.462753 -0.352579,0.634732l-0.148147 0.0493543 2.61702 0 1.82698 0 0.0987367 0 0.148119 0 0.888828 0 -0.789978 -0.0533544c-8.45107e-005,-0.638817 -0.180233,-1.05222 -0.394214,-1.47764 -0.304858,-0.606026 -0.618478,-0.568307 -0.939055,-0.936971l0 0.0987367 -0.197502 0 -0.740652 -0.0987367 -0.592533 0.2468z"/>
   <polygon id="_218718056" class="fil0" points="14.1219,25.9631 14.1713,24.2355 13.0356,24.2355 "/>
   <path id="_218718488" class="fil12" d="M7.11034 23.7419c-0.0837501,0.359424 -0.197502,0.744849 -0.197502,1.18462l0 0.444245c0,0.300013 0.113301,0.519178 0.296266,0.641662l1.23445 0.0987367 0 0.493571 0 0.2468 0.0493543 -2.61606 -0.493768 0c-0.151612,0 -0.296266,-0.0456921 -0.296266,-0.197445l0 -0.148063c0,-0.110653 0.0390721,-0.108343 0.0987649,-0.197445l0.345621 0 9.97427 0.0493824 -2.71575 -0.0493824 -1.23445 0 -1.43195 0 -4.59212 0 0 -0.0987085 -0.986635 0.0620027 -0.0502839 0.0860883z"/>
   <path id="_218718104" class="fil6" d="M6.02404 26.0618l1.18507 -0.0493543c-0.182966,-0.122484 -0.296266,-0.341649 -0.296266,-0.641662l0 -0.444245c0,-0.439766 0.113751,-0.825191 0.197502,-1.18462l0 -0.0987367 -0.395003 0c-0.19829,0 -0.56256,-0.0863418 -0.691298,-0.148063l0 2.56668z"/>
   <path id="_218718128" class="fil0" d="M11.4556 25.4695l0 -0.0493543 0 0.0493543zm-0.641915 0.542953l0.444414 0.0493543 0.0987367 -0.296154 0.0493824 -0.2468 -0.592533 0.493599z"/>
   <path id="_218718632" class="fil6" d="M27.997 24.038l0 7.30522 2.6664 0c-0.16243,-0.103019 -0.510783,-0.185783 -0.750681,-0.335508 -0.323366,-0.201783 -0.361143,-0.258856 -0.619999,-0.515487 -0.302351,-0.29976 -0.653803,-0.980634 -0.653803,-1.56762l0 -0.592308c0,-0.541122 0.462246,-1.22729 0.752934,-1.5179 0.593857,-0.593632 0.746906,-0.50498 1.46905,-0.851361l0.641915 -0.0987367c0.317,-0.0542559 1.13929,0.242968 1.33319,0.345536l0.0519741 -0.341311 0.096145 -0.0535798 0.148147 -0.0493543 0.0493824 -3.30707c-0.684706,0.362157 -1.7192,0.601322 -2.53341,0.873334 -0.385904,0.128907 -2.54053,0.629267 -2.65124,0.706144z"/>
   <path id="_218718680" class="fil6" d="M7.94976 26.6047l0.493796 0 0 -0.493571c-0.242546,0 -0.592533,-0.0783415 -0.592533,0.148063l0 0.148063c0,0.110681 0.0390721,0.108371 0.0987367,0.197445z"/>
   <path id="_218718152" class="fil1" d="M35.453 27.3451l0 -0.542953 -0.444414 0c0.0596928,0.256096 0.199643,0.477598 0.444414,0.542953z"/>
   <polygon id="_218718416" class="fil6" points="8.83856,26.0618 8.83856,26.6047 8.78917,27.049 8.83856,26.6047 11.1099,26.6047 11.2581,26.0618 10.8137,26.0124 "/>
   <path id="_218718272" class="fil4" d="M11.4556 25.4201l0 0.0493543 -0.0493824 0.0493543 -0.0493824 0.2468 0.938182 1.43144 0.197502 -0.592336c-0.0385651,-0.165444 -0.549094,-1.33268 -0.691298,-1.33268 -0.181247,0 -0.238658,0.076454 -0.345621,0.148063z"/>
   <path id="_218718296" class="fil1" d="M35.0086 30.4054l0.395031 0 0 0.493599c-0.27235,-0.0726792 -0.295196,-0.270237 -0.395031,-0.493599zm0.444414 -3.06027c-0.244771,-0.065355 -0.384721,-0.286858 -0.444414,-0.542953l0.444414 0 0 0.542953zm-2.61702 -1.13526c0.218545,0.151781 0.532108,0.177304 0.749864,0.336296 0.279054,0.203699 0.347142,0.246884 0.595801,0.490359 0.334099,0.327113 0.629436,0.93528 0.629436,1.59196l0 0.444245c0,0.864798 -1.14351,2.05739 -1.92572,2.12246l0 0.148063 2.96264 0 -0.345621 -0.444245 0 -0.493599 0.111357 -0.00881729 -0.352776 -0.503374 0.0438892 -0.0307619 0.395031 0 0 0.542953 0.0987367 0 0 -0.345508c0,-0.230912 -0.632873,-0.887701 -0.790035,-1.18464l0.306577 -0.00687354 -0.306577 -0.536052 0.296266 0c0.253391,0 0.148147,0.779076 0.148147,1.03655l0.0493824 0 0 -0.987198 0.111357 -0.00884546 -0.352776 -0.503374 0.0438892 -0.0307337 0.395031 0 0 0.493599 0.0987367 0 0 -0.493599 0.23694 0.00676086 -0.286294 -0.50036 -0.246884 0 0 -0.493599 0.240658 0.00439456 -0.339423 -0.547348 0.444386 0 0 0.493599 0.0493824 0 -0.00867644 -0.487824 -0.28759 -0.499374 -2.61702 0 -0.096145 0.0535798 -0.0519741 0.341311z"/>
   <path id="_218719328" class="fil12" d="M8.83856 26.0618l1.9751 -0.0493543 0.592533 -0.493599 0.0493824 -0.0493543 0 -0.0493543c0.106962,-0.0716088 0.164373,-0.148063 0.345621,-0.148063 0.142203,0 0.652733,1.16723 0.691298,1.33268l1.33319 1.234 0.0493824 0.0493543 0.0493824 0.0493543 0.0493543 0.0493824 0.0493824 0.0493261 0.0493824 0.0493824 0.0493824 0.0493543 0.0493824 0.0493543 0.592533 0.542953 0.148147 0 0.543151 -0.0987085 0.0602562 -0.104596 -1.39347 -2.56082 -1.0863 -1.7276 1.13568 0 1.0863 0 0.0493824 0 -2.27137 0 -4.07787 0.00140851 -0.119216 1.8249z"/>
   <path id="_218718944" class="fil4" d="M46.0198 22.2611l-0.0493824 0.0493543c-0.179106,0.373171 -0.467908,2.12187 -0.554165,2.70378 -0.132795,0.895955 -0.0877503,2.07198 -0.0877503,3.12064l0.592533 2.51732 0.0493824 0.0987367 0.888799 0 0 -1.33271c0,-0.78164 -0.0737215,-1.63779 -0.209812,-2.30759 -0.14333,-0.705214 -0.333339,-1.31341 -0.333339,-2.18412l0 -1.28335 0.0493824 -1.53015 -0.345649 0.148091z"/>
   <path id="_218718896" class="fil1" d="M38.0206 29.3689l0 -0.0493824 0 -0.444245 0 -0.0493261 0 -0.493599 0.246884 0 0.0545094 -0.49343 0.291111 -0.000169021c0.11378,0 0.148147,-0.0343395 0.148147,-0.148091l0 -0.345508 -0.740652 0c0.0645099,-0.130118 0.0493543,0.0406215 0.0493543,-0.148063l0 -0.345536 0.246884 0c0.242039,0 0.157669,-0.420244 0.0987649,-0.542953 0.158232,-0.00352128 0.246884,0.0160852 0.246884,-0.148063l0 -0.197445c0,-0.14102 -0.0155218,-0.0902575 -0.0987367,-0.148091l-0.888828 0 0 1.53015 0.0494106 0 0 -0.493599 0.0956098 0.00118315 -0.0956098 3.00974 0.0987367 0 0 -0.493571 0.0987649 0 0 0.493571 0.0987649 0 0 -0.493571zm-0.493796 -3.5539l-0.0987367 0 0 0.493599 0.0987367 0 -0.00726792 0.494134 0.155387 2.56617 0.0849615 -0.00230996 -0.233081 -3.55159z"/>
   <path id="_218719352" class="fil6" d="M48.3899 27.3451c0.524558,0.0436357 0.247138,0.397708 0.65093,0.484556 0.326662,0.0702848 0.689777,0.0583969 1.07765,0.0578053l0.197135 0.0993283c0.0221418,-0.202403 0.301985,-0.266491 0.493768,-0.394891l0.148147 -0.0987085c0.487035,0.727018 0.543151,0.781105 0.543151,1.97437l0.197502 0c0,-1.33578 -0.543151,-1.51587 -0.543151,-2.22117l0 -0.148091c0,-0.191248 0.691298,-0.475824 0.691298,-1.08591l0 -0.0493543c0,-0.443287 -0.627858,-0.940548 -0.987536,-1.03655l0.118259 0.687692 -0.019522 0.447569c0,0.14102 -0.0155218,0.0902575 -0.0987367,0.148091 -0.253363,-0.185529 -0.148147,-0.959704 -0.148147,-1.38206l-1.55846 -0.602984 -0.0319169 0.0649606 0.555123 1.15518 -0.0510445 0.0245081c-0.51222,-0.13671 -0.853305,-1.28332 -1.28383,-1.28332l-0.197502 0c-0.516361,0 -0.987536,0.223137 -0.987536,0.74037l0 0.394862c0,0.634422 0.957422,0.540531 1.58007,0.592336 -0.0747357,0.279702 -0.585237,0.345508 -0.938182,0.345508 -0.133358,0 -0.136147,-0.0235503 -0.246884,-0.0493543 0.140908,0.604618 0.781724,0.97593 0.839417,1.13526z"/>
   <path id="_218719088" class="fil1" d="M30.5718 27.0679l0.140992 0.425286c-0.241504,0.0562278 -0.493768,0.305309 -0.493768,0.592308l0 0.197445c0,1.04514 1.77757,0.403313 1.77757,0.987198l0 0.0987085c0,0.159922 -0.214573,0.296154 -0.395003,0.296154l-0.148147 0c-0.177642,0 -0.240433,-0.2468 -0.345649,-0.2468 -0.148316,0 -0.318549,0.107272 -0.493768,0.148063 0.0304239,0.365396 0.388918,0.592336 0.790035,0.592336 0.170233,0 0.191191,-0.0365368 0.344522,-0.0489035l0.14764 0.340466 0.297872 -0.094145c-0.0315788,-0.135555 -0.0987367,-0.2006 -0.0987367,-0.296154 0,-0.181022 0.493768,-0.335733 0.493768,-0.789725 0,-1.32687 -1.82698,-0.343621 -1.82698,-1.18464 0,-0.159951 0.214573,-0.296154 0.395031,-0.296154l0.0493824 0c0.157528,0 0.261138,0.164683 0.300267,0.305985l0.53915 -0.207277c-0.0404525,-0.485937 -0.49512,-0.592308 -1.03579,-0.592786l-0.146429 -0.337536 -0.291956 0.110174z"/>
   <path id="_218719280" class="fil11" d="M44.9335 30.751l-0.136936 0.0507346 -0.0605942 0.541573 0.19753 0c0.110681,0 0.108399,-0.0390721 0.197502,-0.0987085l0.889391 -0.395257 -0.0993565 -0.197079 -0.592533 -2.51732 -0.395003 2.61606z"/>
   <polygon id="_218718992" class="fil12" points="11.2581,26.0618 11.1099,26.6047 10.7668,29.016 10.863,29.0727 11.4062,29.2208 11.4556,29.2208 11.7025,28.8259 12.295,27.1971 11.3568,25.7656 "/>
   <path id="_218719400" class="fil1" d="M28.9846 28.6778c0,-1.07703 0.563405,-1.31623 0.938182,-1.87566 -0.560081,0.149499 -1.03695,1.25442 -1.03695,2.07308 0,1.07467 1.1398,2.27055 2.22198,2.27055l0.395031 0c1.26259,0 2.27137,-1.19712 2.27137,-2.51732l0 -0.0493543c0,-1.18045 -1.15709,-2.27055 -2.41951,-2.27055l-0.0987367 0c-0.469232,0 -1.1534,0.225165 -1.33319,0.493599 0.353199,-0.0822571 0.58473,-0.394891 1.18504,-0.394891l0.444414 0c1.05534,0 2.12322,1.11588 2.12322,2.17184l0 0.0987085c0,1.18743 -0.940661,2.36926 -2.07384,2.36926l-0.444414 0c-1.22242,0 -2.1726,-1.12132 -2.1726,-2.36926z"/>
   <path id="_218719040" class="fil7" d="M14.912 28.7272l0.148119 0.64169 0.543151 0.0493543 0.444386 0c0.197671,0 0.245419,-0.101751 0.444386,-0.148063 -0.36165,-0.229418 -0.747666,-0.209897 -1.03689,-0.64169l-0.543151 0.0987085z"/>
   <path id="_218720192" class="fil11" d="M50.8094 27.5919c0.18829,0.392243 -0.148119,0.660085 -0.148119,0.839107 0,0.160768 0.722313,1.00528 0.839417,1.03655 0,-1.19326 -0.0561151,-1.24735 -0.543151,-1.97437l-0.148147 0.0987085z"/>
   <path id="_218719760" class="fil4" d="M15.0601 29.3689l0 0.246771c0.29559,0.156373 1.65218,0.0384806 1.87822,-0.319958l-0.446301 -0.0255222c-0.198966,0.0463119 -0.246715,0.148063 -0.444386,0.148063l-0.444386 0 -0.543151 -0.0493543z"/>
   <path id="_218719928" class="fil2" d="M51.6982 29.4676l-0.197502 0c-0.117104,-0.031269 -0.839417,-0.875785 -0.839417,-1.03655 0,-0.179022 0.336409,-0.446865 0.148119,-0.839107 -0.191783,0.1284 -0.471626,0.192487 -0.493768,0.394891l-0.197135 -0.0993283c-0.387876,0.000591575 -0.750991,0.0124794 -1.07765,-0.0578053 -0.403792,-0.0868489 -0.126372,-0.440921 -0.65093,-0.484556 -0.249363,0.0207615 -0.641887,0.239757 -0.641887,0.493599 0,0.244743 0.173726,0.641662 0.395003,0.641662l0.0493824 0c0.152035,0 0.501881,-0.173472 0.790035,-0.197417 -0.0619745,0.232038 -0.404243,0.388862 -0.641915,0.444217 0.13902,0.207502 0.393144,0.444245 0.74068,0.444245 0.338973,0 0.471514,-0.629098 1.03692,-0.641662 -0.0913843,0.342099 -0.726905,0.22139 -0.740652,0.839107 0.59566,0 1.02523,-0.246433 1.23442,-0.64169 0.245926,0.164627 0.565546,0.412666 0.641915,0.740399l-2.07387 0.0493543 3.80205 0 -1.03683 -0.0547066 0.0520304 -0.636028 0.329282 -0.600111c0.153641,0.101216 0.275026,0.254293 0.507402,0.254293l0.691298 0c0.133358,0 0.136147,-0.0235503 0.246884,-0.0493543 -0.0311281,-0.37396 -0.560503,-0.493599 -0.987564,-0.493599 0.0294097,-0.109977 0.0115498,-0.148063 0.148147,-0.148063l0.0493543 0c0.415145,0 0.516445,0.296154 0.839417,0.296154l0.246912 0c0.197135,0 0.499599,-0.504163 0.543151,-0.691044l-0.395031 0c-0.187079,0 -0.314662,-0.0878067 -0.395031,-0.197417 0.33286,-0.159669 1.08633,0.157697 1.08633,-0.493599 0,-0.346438 -0.15195,-0.64169 -0.493768,-0.64169l-0.345649 0c-0.177163,0 -0.577659,0.663888 -0.839417,0.839135l0.331845 -0.796373 -1.0801 0.330155c0.0075778,0.34748 0.101948,0.845727 -0.140541,0.910434l0 -0.444217c0,-0.170205 0.0365368,-0.191135 0.0493824,-0.345536 -0.257448,0.0599463 -0.641915,0.338494 -0.641915,0.64169l0 0.0987085c0,0.391679 0.352072,0.479458 0.493796,0.691044 -0.045664,0.548559 -0.395031,0.739187 -0.395031,1.33268l0 0.148091 -0.148147 0z"/>
   <polygon id="_218720096" class="fil0" points="12.295,27.1971 11.7025,28.8259 11.7518,31.3433 14.1713,31.3433 14.1713,28.1842 14.1219,28.1349 14.0726,28.0855 14.0232,28.0362 13.9738,27.9868 13.9244,27.9374 13.8751,27.8881 13.8257,27.8387 12.4925,26.6047 "/>
   <path id="_218719832" class="fil1" d="M31.9966 29.2702c0,-0.583885 -1.77757,0.0579462 -1.77757,-0.987198l0 -0.197445c0,-0.286998 0.252265,-0.53608 0.493768,-0.592308l-0.140992 -0.425286 0.291956 -0.110174 0.146429 0.337536c0.540672,0.000478894 0.995339,0.10685 1.03579,0.592786l-0.53915 0.207277c-0.0391285,-0.141302 -0.142739,-0.305985 -0.300267,-0.305985l-0.0493824 0c-0.180459,0 -0.395031,0.136203 -0.395031,0.296154 0,0.841023 1.82698,-0.142232 1.82698,1.18464 0,0.453992 -0.493768,0.608703 -0.493768,0.789725 0,0.0955535 0.0671579,0.160599 0.0987367,0.296154l-0.297872 0.094145 -0.14764 -0.340466c-0.153331,0.0123667 -0.174289,0.0489035 -0.344522,0.0489035 -0.401116,0 -0.759611,-0.22694 -0.790035,-0.592336 0.175219,-0.0407905 0.345452,-0.148063 0.493768,-0.148063 0.105216,0 0.168007,0.2468 0.345649,0.2468l0.148147 0c0.18043,0 0.395003,-0.136231 0.395003,-0.296154l0 -0.0987085zm-3.01202 -0.592336c0,1.24794 0.950182,2.36926 2.1726,2.36926l0.444414 0c1.13318,0 2.07384,-1.18183 2.07384,-2.36926l0 -0.0987085c0,-1.05596 -1.06788,-2.17184 -2.12322,-2.17184l-0.444414 0c-0.600308,0 -0.831839,0.312633 -1.18504,0.394891 0.179783,-0.268434 0.863953,-0.493599 1.33319,-0.493599l0.0987367 0c1.26242,0 2.41951,1.0901 2.41951,2.27055l0 0.0493543c0,1.3202 -1.00878,2.51732 -2.27137,2.51732l-0.395031 0c-1.08219,0 -2.22198,-1.19588 -2.22198,-2.27055 0,-0.818656 0.476866,-1.92358 1.03695,-2.07308 -0.374777,0.559433 -0.938182,0.798626 -0.938182,1.87566zm1.67883 2.66541l1.2838 0 0.938182 -0.394891c0.507064,-0.583152 1.13568,-1.08337 1.13568,-2.17181l0 -0.246771c0,-0.832656 -0.542587,-1.46035 -0.974465,-1.88879 -0.825022,-0.818486 -1.87304,-0.479598 -2.1857,-0.677917 -0.722144,0.346381 -0.875193,0.25773 -1.46905,0.851361 -0.290689,0.290604 -0.752934,0.976775 -0.752934,1.5179l0 0.592308c0,0.586983 0.351452,1.26786 0.653803,1.56762 0.258856,0.256631 0.296633,0.313704 0.619999,0.515487 0.239898,0.149725 0.588251,0.232489 0.750681,0.335508z"/>
   <path id="_218719496" class="fil4" d="M19.4547 22.2118l0.246884 2.56668 0 0.0493824 0.0493824 0.0987085c0,0.778457 0.267758,2.12021 0.383369,2.87449 0.117949,0.769414 0.107695,2.37078 0.604195,2.70313l0.69127 -0.0987367 0.197502 -3.60323c-0.00774682,-0.348466 -0.594758,-2.85136 -0.725806,-3.17386 -0.211474,-0.520473 -0.309647,-0.93883 -0.55732,-1.41725 -0.202319,-0.390834 -0.275111,-1.15932 -0.0429033,-1.63413l-0.105892 -0.142147 0 -0.0987085c0,-0.1826 -0.00766231,-0.128034 0.0493543,-0.2468l-0.345649 -0.0987085c0,0.979789 -0.427455,1.46189 -0.444386,2.22117z"/>
   <path id="_218719592" class="fil1" d="M37.4281 25.815l-1.82698 0 0.28759 0.499374 0.00867644 0.487824 -0.0493824 0 0 -0.493599 -0.444386 0 0.339423 0.547348 -0.240658 -0.00439456 0 0.493599 0.246884 0 0.286294 0.50036 -0.23694 -0.00676086 0 0.493599 -0.0987367 0 0 -0.493599 -0.395031 0 -0.0438892 0.0307337 0.352776 0.503374 -0.111357 0.00884546 0 0.987198 -0.0493824 0c0,-0.257476 0.105244,-1.03655 -0.148147,-1.03655l-0.296266 0 0.306577 0.536052 -0.306577 0.00687354c0.157162,0.296943 0.790035,0.953732 0.790035,1.18464l0 0.345508 -0.0987367 0 0 -0.542953 -0.395031 0 -0.0438892 0.0307619 0.352776 0.503374 -0.111357 0.00881729 0 0.493599 0.345621 0.444245 2.27137 0 0 -0.444245 -0.056425 -0.148063 0.00704256 -0.197445c0,-0.0952718 -0.0155218,-0.087863 -0.0493543,-0.148091 0.402356,0 0.296238,-0.074792 0.296238,-0.493571l0.144626 -0.0585659 0.00352128 -0.336325c0,-0.213897 -0.224517,-0.148063 -0.444386,-0.148063l0 -0.0493824 0 -0.444245 0 -0.0493261 0.054763 -0.444019 0.192121 -0.0495796 -0.246884 0 0 0.493599 0 0.0493261 0 0.444245 0 0.0493824 0 0.493571 -0.0987649 0 0 -0.493571 -0.0987649 0 0 0.493571 -0.0987367 0 0.0956098 -3.00974 -0.0956098 -0.00118315 0 0.493599 -0.0494106 0 0 -1.53015 -0.148119 0 0.233081 3.55159 -0.0849615 0.00230996 -0.155387 -2.56617 0.00726792 -0.494134 -0.0987367 0 0 -0.493599z"/>
   <polygon id="_218719544" class="fil0" points="6.36969,31.3433 8.33777,31.3431 8.44355,26.8515 8.44355,26.6047 7.94976,26.6047 6.5962,26.6036 "/>
   <path id="_218720000" class="fil12" d="M45.921 30.6522l0.0993565 0.197079 -0.889391 0.395257 -0.0493824 0.0987085 1.67883 0c0.0715806,-0.307168 0.320437,-1.57579 0.0987649,-1.92501l0 1.33271 -0.888799 0 -0.0493824 -0.0987367z"/>
   <polygon id="_218719520" class="fil6" points="17.9734,31.3433 18.8128,31.3433 18.8128,24.8278 19.7016,24.8278 19.751,24.9265 19.7016,24.8278 19.7016,24.7784 17.8746,24.7784 "/>
   <path id="_218719712" class="fil6" d="M21.4298 30.4054l0 0.937844 1.48133 0c0.162909,-0.243194 0.493768,-0.202375 0.493768,-0.592308l0 -0.691044c-0.527572,-0.0438892 -1.43989,-3.01039 -1.7776,-3.25772l-0.197502 3.60323z"/>
   <path id="_218720864" class="fil7" d="M10.3199 29.8131c0.222038,0.419511 0.482894,1.01773 0.987536,1.13526 -0.0578053,-0.109216 -0.148119,-0.240799 -0.148119,-0.394862l0 -0.148091c0,-0.420413 0.239278,-0.84384 0.246884,-1.18462l-0.543151 -0.148063c-0.164542,0.706031 -0.175557,0.420976 -0.543151,0.74037z"/>
   <path id="_218720264" class="fil1" d="M35.0086 30.4054c0.0998354,0.223362 0.122681,0.42092 0.395031,0.493599l0 -0.493599 -0.395031 0z"/>
   <path id="_218720840" class="fil10" d="M30.8609 25.9631c0.312662,0.198319 1.36068,-0.14057 2.1857,0.677917 0.431878,0.428441 0.974465,1.05613 0.974465,1.88879l0 0.246771c0,1.08844 -0.628619,1.58866 -1.13568,2.17181l0 0.246828c0.782203,-0.0650733 1.92572,-1.25766 1.92572,-2.12246l0 -0.444245c0,-0.656677 -0.295337,-1.26484 -0.629436,-1.59196 -0.248659,-0.243475 -0.316746,-0.28666 -0.595801,-0.490359 -0.217756,-0.158993 -0.531319,-0.184515 -0.749864,-0.336296 -0.193896,-0.102568 -1.01619,-0.399792 -1.33319,-0.345536l-0.641915 0.0987367z"/>
   <path id="_218720288" class="fil11" d="M11.3074 30.9484l0.296266 0.394891 -0.148119 -2.12246 -0.0493824 0c-0.00760597,0.340775 -0.246884,0.764202 -0.246884,1.18462l0 0.148091c0,0.154063 0.0903138,0.285646 0.148119,0.394862z"/>
   <path id="_218720912" class="fil2" d="M6.02404 26.0618l0 0.296182 0.256518 0.286914 -0.108399 4.69837 0.19753 0 0.226517 -4.73962 1.35355 0.00109864c-0.0596646,-0.0890743 -0.0987367,-0.0867644 -0.0987367,-0.197445l0 -0.148063c0,-0.226404 0.349987,-0.148063 0.592533,-0.148063l-1.23445 -0.0987367 -1.18507 0.0493543z"/>
   <path id="_218720624" class="fil0" d="M8.78917 27.049l-0.197502 4.29427 2.61702 0c-0.17443,-0.151556 -1.13568,-1.08979 -1.13568,-1.28335 0,-0.151443 0.121808,-0.213418 0.246884,-0.2468 0.367594,-0.319394 0.378608,-0.0343395 0.543151,-0.74037l-0.0962859 -0.056763 0.34317 -2.41123 -2.27137 0 -0.0493824 0.444245z"/>
   <polygon id="_218720384" class="fil6" points="11.4556,29.2208 11.6037,31.3433 11.7518,31.3433 11.7025,28.8259 "/>
   <path id="_218720336" class="fil6" d="M14.1219 25.9631l1.39347 2.56082 -0.0602562 0.104596c0.289224,0.431794 0.675241,0.412272 1.03689,0.64169l0.446301 0.0255222c-0.226038,0.358438 -1.58263,0.476331 -1.87822,0.319958l0 -0.246771 -0.148119 -0.64169 -0.148147 0 -0.592533 -0.542953 -0.0493824 -0.0493543 -0.0493824 -0.0493543 -0.0493824 -0.0493824 -0.0493824 -0.0493261 -0.0493543 -0.0493824 -0.0493824 -0.0493543 -0.0493824 -0.0493543 0.0493824 0.0493543 0.0493824 0.0493543 0.0493543 0.0493824 0.0493824 0.0493261 0.0493824 0.0493824 0.0493824 0.0493543 0.0493824 0.0493543 0 3.15901 3.61385 -0.000507064 -0.354917 -6.61367 -2.02386 -0.10823 -0.19815 0.00952154 0.0493824 -0.394891 -1.0863 0 -0.0493824 1.7276z"/>
   <path id="_218720984" class="fil6" d="M23.1086 24.6797c0,0.75592 0.395567,2.21091 0.60828,2.84711 0.0822008,0.24587 0.19367,1.20788 0.227644,1.50001 0.02648,0.227728 -0.0374664,0.623633 0.0203389,0.818768 0.0744258,0.25125 0.328775,0.231137 0.328775,0.559799l0 0.0493824c0,0.144203 -0.224038,0.274575 -0.297168,0.393933 -0.0938914,0.153274 -0.104765,0.321056 -0.196572,0.494529l2.27134 0 0 -7.00904 -2.96264 0.345508z"/>
   <polygon id="_218720552" class="fil0" points="26.0713,24.3342 26.0713,31.3433 27.997,31.3433 27.997,24.038 "/>
   <polygon id="_218721488" class="fil1" points="38.1194,31.3433 38.6132,31.3433 38.6132,30.899 38.1194,30.899 "/>
   <path id="_218721608" class="fil4" d="M8.78917 27.049l0.0493824 -0.444245 0 -0.542953 0.119216 -1.8249 4.07787 -0.00140851 2.27137 0 2.12325 0 0 0.493599 0.354917 6.61367 -3.61385 0.000507064 -2.41949 0 -0.148147 0 -0.296266 -0.394891c-0.504642,-0.117526 -0.765498,-0.71575 -0.987536,-1.13526 -0.125076,0.0333817 -0.246884,0.0953563 -0.246884,0.2468 0,0.193558 0.961253,1.1318 1.13568,1.28335l-2.61702 0 0.197502 -4.29427zm-0.345621 -0.197445l-0.105779 4.49155 -1.96809 0.000169021 -0.19753 0 -4.09829 0c-0.287956,0 -2.07387,-0.0796373 -2.07387,0.0987085 0,0.113751 0.0343677,0.148091 0.148119,0.148091l55.0559 0c0.0807923,0 0.148119,-0.0295506 0.148119,-0.0987367 0,-0.262406 -1.27614,-0.148063 -1.58007,-0.148063l-1.87634 0 -1.72822 0 -3.40705 0 -1.67883 0 -2.07387 0 -3.40702 0 -0.987564 0 -0.493768 0 -2.27137 0 -2.96264 0 -9.97424 0 -3.25893 0 -1.67883 0 -0.0987367 -6.56482 0 -0.542953 0.148119 0c0.115583,0 0.19753,-0.0818909 0.19753,-0.197445l0 -0.148063c0,-0.140992 -0.01555,-0.0902575 -0.0987649,-0.148063l-9.97427 -0.0493824 -0.345621 0c-0.0596928,0.0891025 -0.0987649,0.0867925 -0.0987649,0.197445l0 0.148063c0,0.151753 0.144654,0.197445 0.296266,0.197445l0.493768 0 -0.0493543 2.61606z"/>
   <path id="_218721440" class="fil0" d="M18.8128 31.3433l0.839417 0c0.0955816,-0.357762 0.744286,-0.180459 1.08633,-0.691044l0 -0.148063c-0.496501,-0.332353 -0.486247,-1.93372 -0.604195,-2.70313 -0.115611,-0.754287 -0.383369,-2.09604 -0.383369,-2.87449l-0.0493824 -0.0987085 -0.888799 0 0 6.51544z"/>
   <polygon id="_218721512" class="fil6" points="31.9472,31.3433 32.8854,31.3433 32.8854,31.1952 32.8854,30.9484 "/>
   <path id="_218721704" class="fil12" d="M43.0077 31.3433l2.07387 0 0.0493824 -0.0987085c-0.0891025,0.0596364 -0.0868207,0.0987085 -0.197502,0.0987085l-0.19753 0 0.0605942 -0.541573 0.136936 -0.0507346 -0.938182 -0.0493824 0.053608 0.0961169 -1.04117 0.545573z"/>
   <path id="_218721776" class="fil6" d="M50.1675 31.3433l1.72822 0 -0.0466781 -0.149133c0.582335,-0.308408 1.13295,-0.800289 1.13295,-1.67717l-3.80205 0c0.157556,0.328212 0.0627633,0.571518 0.364495,1.01773 0.166627,0.246461 0.463063,0.474246 0.721834,0.611125l-0.0987649 0.197445z"/>
   <path id="_218721296" class="fil12" d="M21.6273 26.8022c0.337705,0.247335 1.25003,3.21383 1.7776,3.25772l0 0.691044c0,0.389933 -0.33086,0.349114 -0.493768,0.592308l-1.48133 0 0 -0.937844 -0.69127 0.0987367 0 0.148063c-0.342043,0.510586 -0.990748,0.333282 -1.08633,0.691044l-0.839417 0 -0.839417 0 1.67883 0 3.25893 0 9.97424 0 -0.938182 0 -1.2838 0 -2.6664 0 -1.92572 0 -2.27134 0c0.0918068,-0.173472 0.102681,-0.341254 0.196572,-0.494529 0.07313,-0.119357 0.297168,-0.249729 0.297168,-0.393933l0 -0.0493824c0,-0.328662 -0.254349,-0.308549 -0.328775,-0.559799 -0.0578053,-0.195135 0.00614111,-0.59104 -0.0203389,-0.818768 -0.0339733,-0.292125 -0.145443,-1.25414 -0.227644,-1.50001 -0.212714,-0.636197 -0.60828,-2.09119 -0.60828,-2.84711l-0.0987649 -2.5667 -0.296238 -0.937816 -0.441174 0.34948 -0.694509 -0.694988 -0.246912 -0.2468 -0.0493543 -0.0987367 -0.691298 -0.0493543c-0.0891307,0.0596646 -0.0868207,0.0987367 -0.197502,0.0987367 -0.110709,0 -0.108399,-0.0390721 -0.197502,-0.0987367l0.105892 0.142147c-0.232207,0.474809 -0.159415,1.24329 0.0429033,1.63413 0.247673,0.478415 0.345846,0.896772 0.55732,1.41725 0.131048,0.322493 0.71806,2.82539 0.725806,3.17386z"/>
  </g>
 </g>
</svg>
